<svg width="30" height="30" viewBox="0 0 30 30" fill="none" xmlns="http://www.w3.org/2000/svg">
<path d="M15 2.5C8.1 2.5 2.5 8.1 2.5 15C2.5 21.9 8.1 27.5 15 27.5C21.9 27.5 27.5 21.9 27.5 15C27.5 8.1 21.9 2.5 15 2.5ZM15 7.5C17.4125 7.5 19.375 9.4625 19.375 11.875C19.375 14.2875 17.4125 16.25 15 16.25C12.5875 16.25 10.625 14.2875 10.625 11.875C10.625 9.4625 12.5875 7.5 15 7.5ZM15 25C12.4625 25 9.4625 23.975 7.325 21.4C9.51451 19.6822 12.217 18.7485 15 18.7485C17.783 18.7485 20.4855 19.6822 22.675 21.4C20.5375 23.975 17.5375 25 15 25Z" fill="#14C38E"/>
</svg>
