<svg width="30" height="30" viewBox="0 0 30 30" fill="none" xmlns="http://www.w3.org/2000/svg">
<path d="M27.5 25V15.2175C27.5001 14.5369 27.3612 13.8635 27.0919 13.2384C26.8226 12.6134 26.4285 12.0499 25.9337 11.5825L16.7175 2.8725C16.2533 2.43366 15.6388 2.18915 15 2.18915C14.3612 2.18915 13.7467 2.43366 13.2825 2.8725L4.06625 11.5825C3.57153 12.0499 3.17744 12.6134 2.90812 13.2384C2.6388 13.8635 2.49993 14.5369 2.5 15.2175V25C2.5 25.663 2.76339 26.2989 3.23223 26.7678C3.70107 27.2366 4.33696 27.5 5 27.5H25C25.663 27.5 26.2989 27.2366 26.7678 26.7678C27.2366 26.2989 27.5 25.663 27.5 25Z" stroke="#14C38E" stroke-width="2" stroke-linecap="round" stroke-linejoin="round"/>
</svg>
